<svg width="32" height="32" viewBox="0 0 32 32" fill="none" xmlns="http://www.w3.org/2000/svg">
<path d="M16 32C24.8366 32 32 24.8366 32 16C32 7.16344 24.8366 0 16 0C7.16344 0 0 7.16344 0 16C0 24.8366 7.16344 32 16 32Z" fill="#054F31"/>
<path d="M7.76847 22H6.38352L10.3892 11.0909H11.7528L15.7585 22H14.3736L11.1136 12.8168H11.0284L7.76847 22ZM8.27983 17.7386H13.8622V18.9105H8.27983V17.7386ZM23.4237 13.8182C23.3597 13.2784 23.1005 12.8594 22.646 12.5611C22.1914 12.2628 21.6339 12.1136 20.9734 12.1136C20.4904 12.1136 20.0678 12.1918 19.7056 12.348C19.3469 12.5043 19.0664 12.7191 18.864 12.9925C18.6651 13.266 18.5657 13.5767 18.5657 13.9247C18.5657 14.2159 18.6349 14.4663 18.7734 14.6758C18.9155 14.8817 19.0966 15.054 19.3168 15.1925C19.5369 15.3274 19.7678 15.4393 20.0092 15.5281C20.2507 15.6133 20.4727 15.6825 20.6751 15.7358L21.783 16.0341C22.0671 16.1087 22.3832 16.2116 22.7312 16.343C23.0827 16.4744 23.4183 16.6538 23.7379 16.881C24.0611 17.1048 24.3274 17.3924 24.5369 17.744C24.7464 18.0955 24.8512 18.527 24.8512 19.0384C24.8512 19.6278 24.6967 20.1605 24.3878 20.6364C24.0824 21.1122 23.6349 21.4904 23.0455 21.771C22.4595 22.0515 21.7475 22.1918 20.9094 22.1918C20.1282 22.1918 19.4517 22.0657 18.88 21.8136C18.3118 21.5614 17.8643 21.2099 17.5376 20.7589C17.2145 20.3079 17.0316 19.7841 16.989 19.1875H18.3526C18.3881 19.5994 18.5266 19.9403 18.7681 20.2102C19.0131 20.4766 19.3221 20.6754 19.695 20.8068C20.0714 20.9347 20.4762 20.9986 20.9094 20.9986C21.4137 20.9986 21.8665 20.9169 22.2678 20.7536C22.669 20.5866 22.9869 20.3558 23.2212 20.0611C23.4556 19.7628 23.5728 19.4148 23.5728 19.017C23.5728 18.6548 23.4716 18.3601 23.2692 18.1328C23.0668 17.9055 22.8004 17.7209 22.4702 17.5788C22.1399 17.4368 21.783 17.3125 21.3995 17.206L20.0572 16.8224C19.2049 16.5774 18.5302 16.2276 18.033 15.7731C17.5359 15.3185 17.2873 14.7237 17.2873 13.9886C17.2873 13.3778 17.4524 12.8452 17.7827 12.3906C18.1165 11.9325 18.5639 11.5774 19.125 11.3253C19.6896 11.0696 20.32 10.9418 21.016 10.9418C21.7191 10.9418 22.3441 11.0678 22.891 11.32C23.4379 11.5685 23.8711 11.9094 24.1907 12.3427C24.5138 12.7759 24.6843 13.2678 24.7021 13.8182H23.4237Z" fill="white"/>
</svg>
